<?xml version="1.0" encoding="utf-8"?>
<!-- Generator: Adobe Illustrator 21.1.0, SVG Export Plug-In . SVG Version: 6.00 Build 0)  -->
<svg version="1.1" id="Layer_1" xmlns="http://www.w3.org/2000/svg" xmlns:xlink="http://www.w3.org/1999/xlink" x="0px" y="0px"
	 viewBox="0 0 114.5 114.5" style="enable-background:new 0 0 114.5 114.5;" xml:space="preserve">
<style type="text/css">
	.st0{fill:#EDF0F1;}
	.st1{fill:#2C3E50;}
	.st2{stroke:#000000;stroke-width:3;stroke-miterlimit:10;}
	.st3{fill:#E0D000;}
	.st4{fill:#101F2E;}
	.st5{fill:none;stroke:#E0D000;stroke-width:0.75;stroke-miterlimit:10;}
	.st6{fill:#F0C419;}
	.st7{fill:#BDC2C7;}
	.st8{fill:none;stroke:#2C3E50;stroke-miterlimit:10;}
	.st9{fill:#F0C419;stroke:#F0C419;stroke-miterlimit:10;}
	.st10{fill:#ED1C24;}
	.st11{fill:none;stroke:#ED1C24;stroke-miterlimit:10;}
	.st12{fill:#FFFFFF;}
	.st13{fill:none;stroke:#EFC51A;stroke-width:4;stroke-miterlimit:10;}
	.st14{fill:none;stroke:#BCBEC0;stroke-width:4;stroke-miterlimit:10;}
	.st15{fill:#7F8C8D;}
	.st16{fill:none;stroke:#F0C419;stroke-width:2;stroke-miterlimit:10;}
	.st17{fill:#5D5E5E;}
	.st18{fill:none;}
</style>
<g>
	<path class="st18" d="M98.7,36.7c-0.9,0.8-1.8,1.6-2.6,2.4C96.9,38.3,97.8,37.5,98.7,36.7z"/>
	<path class="st18" d="M95,40c-0.3,0.3-0.7,0.6-1,0.9C94.3,40.6,94.6,40.3,95,40z"/>
	<path class="st18" d="M84.4,87.4l-5.6,2.2C80.7,88.9,82.5,88.1,84.4,87.4z"/>
	<path class="st18" d="M18.4,45.6c0.3-0.3,0.5-0.5,0.6-0.6C18.8,45.2,18.6,45.4,18.4,45.6z"/>
	<path class="st18" d="M103.9,32.1c-0.4,0.4-1.4,1.3-2.7,2.4C102.1,33.7,103,32.9,103.9,32.1z"/>
	<path class="st18" d="M100.4,35.2c-0.3,0.3-0.7,0.6-1,0.9C99.7,35.8,100,35.5,100.4,35.2z"/>
	<path class="st18" d="M59.8,97.1c1-0.5,2-0.9,3.1-1.3l-3.1,1.2C59.8,97,59.8,97,59.8,97.1z"/>
	<polygon class="st18" points="62.2,58.7 62.2,58.7 62.2,58.7 	"/>
	<path class="st18" d="M79.9,71.2l4.9-2C83.1,69.9,81.5,70.5,79.9,71.2z"/>
	<path d="M96.2,43.7L110.8,31L72,14.2c0,0-11,9.4-14,11.9c-4.7-4.7-9.2-9.2-13.2-13.2C31.4,18.3,18.7,23.4,5.1,28.9L19.3,42
		L2.9,56.7c5.5,2.2,10.4,4.2,16.1,6.5c0,7.5,0,15.3,0,22.9l37.9,15.5c0,0,32.6-12.9,39.4-15.7l0.1-21.7l15.2-6.1L96.2,43.7z
		 M7.4,56.1c0,0,8.3-7.8,11-10.5c0.2-0.2,0.4-0.4,0.6-0.6c10.6,4.3,21.1,8.5,31.6,12.7c-3.8,3.8-10.1,11.6-10.1,11.6
		C30.8,65.5,7.4,56.1,7.4,56.1z M54.1,96.9c-10.7-4.5-21.5-7.8-31.4-13.1c0-5.6,0-10.8,0-16.7c6.5,2.4,12.6,4.6,19.1,7L54.1,60
		C54.1,72.9,54.1,84.6,54.1,96.9z M23.1,40.7c-3.9-3.9-7.6-7.6-11-11l31.5-13.4l11.1,11.5C43.8,32.2,33.2,36.5,23.1,40.7z
		 M72.3,18.1l31.8,13.8c0,0-0.1,0.1-0.2,0.2c-0.9,0.8-1.8,1.6-2.7,2.4c-0.3,0.2-0.6,0.5-0.9,0.8c-0.4,0.3-0.7,0.6-1,0.9
		c-0.2,0.2-0.4,0.4-0.6,0.5c-0.9,0.8-1.8,1.6-2.6,2.4c-0.4,0.3-0.7,0.7-1.1,1c-0.3,0.3-0.7,0.6-1,0.9c-0.2,0.2-0.5,0.4-0.7,0.6
		c-10.8-4.2-21.5-8.4-32.7-12.8C64.3,25.5,72.3,18.1,72.3,18.1z M92.3,84.3l-7.9,3.1c-1.9,0.8-3.7,1.5-5.6,2.2l-15.9,6.2
		c-1,0.4-2,0.9-3.1,1.3c0-0.1,0-0.1,0-0.1l-0.3,0.1c-0.2-1.2-0.1-33.9-0.1-33.9l11,12l9.6-3.9c1.6-0.7,3.3-1.4,4.9-2l7.5-3V84.3z
		 M71.7,71L61.4,59l0.9-0.4l0,0c0,0,0,0,0,0l31.7-13.2l11.9,11.3L71.7,71z"/>
</g>
</svg>
