<?xml version="1.0" encoding="utf-8"?>
<!-- Generator: Adobe Illustrator 21.1.0, SVG Export Plug-In . SVG Version: 6.00 Build 0)  -->
<svg version="1.1" id="Layer_1" xmlns="http://www.w3.org/2000/svg" xmlns:xlink="http://www.w3.org/1999/xlink" x="0px" y="0px"
	 viewBox="0 0 114.5 114.5" style="enable-background:new 0 0 114.5 114.5;" xml:space="preserve">
<style type="text/css">
	.st0{fill:#EDF0F1;}
	.st1{fill:#2C3E50;}
	.st2{stroke:#000000;stroke-width:3;stroke-miterlimit:10;}
	.st3{fill:#E0D000;}
	.st4{fill:#101F2E;}
	.st5{fill:none;stroke:#E0D000;stroke-width:0.75;stroke-miterlimit:10;}
	.st6{fill:#F0C419;}
	.st7{fill:#BDC2C7;}
	.st8{fill:none;stroke:#2C3E50;stroke-miterlimit:10;}
	.st9{fill:#F0C419;stroke:#F0C419;stroke-miterlimit:10;}
	.st10{fill:#ED1C24;}
	.st11{fill:none;stroke:#ED1C24;stroke-miterlimit:10;}
	.st12{fill:#FFFFFF;}
	.st13{fill:none;stroke:#EFC51A;stroke-width:4;stroke-miterlimit:10;}
	.st14{fill:none;stroke:#BCBEC0;stroke-width:4;stroke-miterlimit:10;}
	.st15{fill:#7F8C8D;}
	.st16{fill:none;stroke:#F0C419;stroke-width:2;stroke-miterlimit:10;}
	.st17{fill:#5D5E5E;}
	.st18{fill:none;}
</style>
<g>
	<path d="M101.6,28.6c-0.6,1.1-1.2,2.3-1.7,3.4c-4,9.4-8,18.8-12,28.2c-0.7,1.8-1.8,2.5-3.8,2.5c-13.8-0.1-27.6,0-41.4,0
		c-0.5,0-1,0-1.7,0c0.3,1.5,0.5,3,0.8,4.4c0.3,1.7,0.8,3.4,1,5.2c0.1,1.1,0.6,1.3,1.6,1.3c11.6,0,23.2,0,34.8,0
		c1.9,0,3.1,1.1,3.1,2.8c0,1.4-1,2.6-2.4,2.7c-0.3,0-0.6,0-1,0c-12.5,0-25,0-37.6,0c-2.3,0-3.1-0.7-3.6-3
		c-2.1-11.1-4.1-22.2-6.2-33.3c-1.4-7.4-2.8-14.9-4.1-22.3c-0.1-0.8-0.4-1.1-1.2-1.1c-3.4,0-6.8,0-10.3,0c-1.8,0-2.9-1-3-2.6
		c-0.1-1.7,1-2.8,2.7-2.9c4.7,0,9.3,0,14,0c1.5,0,2.4,0.8,2.8,2.4c0.6,2.8,1.1,5.5,1.6,8.4c0.6,0,1.1,0,1.7,0c20.7,0,41.5,0,62.2,0
		c1.6,0,2.9,0.4,3.8,1.7C101.6,27.1,101.6,27.8,101.6,28.6z M35,30.2c0,0.4,0,0.6,0.1,0.8c1.5,8.3,3.1,16.6,4.6,24.9
		c0.2,1,0.6,1.2,1.5,1.2c13.5,0,27.1,0,40.6,0c0.9,0,1.4-0.2,1.8-1.1c3.5-8.2,7-16.5,10.5-24.7c0.2-0.4,0.3-0.7,0.4-1.2
		C74.6,30.2,54.9,30.2,35,30.2z"/>
	<path d="M47,100.6c-1.4-0.9-3.1-1.5-4.2-2.7c-2.5-2.5-2.9-6.4-1.1-9.5c1.8-3.2,5.5-4.7,9.1-3.9c3.4,0.8,6.1,3.7,6.4,6.9
		c0.4,3.8-1.6,7.1-5,8.6c-0.5,0.2-0.9,0.4-1.4,0.6C49.6,100.6,48.3,100.6,47,100.6z"/>
	<path d="M69.2,100.6c-0.4-0.2-0.8-0.4-1.2-0.6c-3.7-1.5-5.8-5.3-5.1-9.2c0.8-3.8,4.3-6.6,8.3-6.6c3.9,0,7.4,2.8,8.2,6.6
		c0.8,3.8-1.4,7.7-5.1,9.2c-0.4,0.2-0.8,0.4-1.2,0.6C71.8,100.6,70.5,100.6,69.2,100.6z"/>
</g>
</svg>
