<?xml version="1.0" encoding="utf-8"?>
<!-- Generator: Adobe Illustrator 21.1.0, SVG Export Plug-In . SVG Version: 6.00 Build 0)  -->
<svg version="1.1" id="Layer_1" xmlns="http://www.w3.org/2000/svg" xmlns:xlink="http://www.w3.org/1999/xlink" x="0px" y="0px"
	 viewBox="0 0 114.5 114.5" style="enable-background:new 0 0 114.5 114.5;" xml:space="preserve">
<style type="text/css">
	.st0{fill:#EDF0F1;}
	.st1{fill:#2C3E50;}
	.st2{stroke:#000000;stroke-width:3;stroke-miterlimit:10;}
	.st3{fill:#E0D000;}
	.st4{fill:#101F2E;}
	.st5{fill:none;stroke:#E0D000;stroke-width:0.75;stroke-miterlimit:10;}
	.st6{fill:#F0C419;}
	.st7{fill:#BDC2C7;}
	.st8{fill:none;stroke:#2C3E50;stroke-miterlimit:10;}
	.st9{fill:#F0C419;stroke:#F0C419;stroke-miterlimit:10;}
	.st10{fill:#ED1C24;}
	.st11{fill:none;stroke:#ED1C24;stroke-miterlimit:10;}
	.st12{fill:#FFFFFF;}
	.st13{fill:none;stroke:#EFC51A;stroke-width:4;stroke-miterlimit:10;}
	.st14{fill:none;stroke:#BCBEC0;stroke-width:4;stroke-miterlimit:10;}
	.st15{fill:#7F8C8D;}
	.st16{fill:none;stroke:#F0C419;stroke-width:2;stroke-miterlimit:10;}
	.st17{fill:#5D5E5E;}
	.st18{fill:none;}
</style>
<g>
	<path class="st18" d="M99.8,30.3c-0.4,0.4-0.8,0.7-1.1,1C99.1,31,99.5,30.6,99.8,30.3z"/>
	<path class="st18" d="M87.9,83.9l-6.4,2.5C83.6,85.5,85.8,84.7,87.9,83.9z"/>
	<path class="st18" d="M13.2,36.6c0.3-0.3,0.5-0.5,0.7-0.7C13.7,36.1,13.4,36.3,13.2,36.6z"/>
	<path class="st18" d="M60,94.8c1.2-0.5,2.3-1,3.5-1.5L60,94.7C60,94.7,60,94.8,60,94.8z"/>
	<polygon class="st18" points="62.8,51.4 62.8,51.4 62.8,51.4 	"/>
	<path d="M101.1,32.3L58,14.5L13.9,31.3c0,0,0,42.5,0,51.2l42.9,17.6c0,0,36.9-14.6,44.6-17.8L101.1,32.3z M53.6,94.7
		c-12.1-5.1-24.3-8.8-35.5-14.8c0-6.3,0-37.4,0-44.1c7.3,2.7,35.6,14,35.6,14C53.6,64.4,53.6,80.8,53.6,94.7z M96.8,80.4l-9,3.5
		c-2.1,0.9-4.2,1.7-6.4,2.5l-18,7c-1.2,0.5-2.3,1-3.5,1.5c0-0.1,0-0.1,0-0.2l-0.4,0.2c-0.2-1.3-0.1-44.7-0.1-44.7l37.3-13.6V80.4z
		 M20,32.2l38.4-15l14.3,5.9L37,38.7L20,32.2z M40.1,40.5l36.1-15.7l18.6,8.3L56.7,47.4L40.1,40.5z"/>
</g>
</svg>
